<svg width="82" height="30" viewBox="0 0 82 30" fill="none" xmlns="http://www.w3.org/2000/svg">
<path d="M48.008 11.632C48.224 11.416 48.314 11.128 48.314 10.84C48.314 10.138 47.72 9.58 47.072 9.58C46.73 9.58 46.406 9.724 46.172 9.976L41.816 14.638V10.84C41.816 10.138 41.24 9.58 40.52 9.58C39.8 9.58 39.224 10.138 39.224 10.84V20.92C39.224 21.622 39.8 22.18 40.52 22.18C41.204 22.18 41.816 21.622 41.816 20.92V17.968L42.896 16.87L46.352 21.604C46.622 21.964 46.946 22.18 47.414 22.18C48.152 22.18 48.728 21.532 48.728 20.866C48.728 20.632 48.656 20.38 48.512 20.182L44.642 15.052L48.008 11.632ZM57.5619 19.732C56.9679 19.732 56.4999 20.29 55.2399 20.29C54.0699 20.29 53.3319 19.696 53.1159 18.598H57.6159C58.3539 18.598 58.7859 18.112 58.7859 17.266C58.7859 16.456 58.5519 15.484 57.7599 14.674C57.1119 14.026 56.1579 13.594 54.8259 13.594C53.5299 13.594 52.5039 14.026 51.7839 14.746C51.0639 15.484 50.6139 16.546 50.6139 17.788C50.6139 19.084 51.0459 20.182 51.8199 20.974C52.5759 21.748 53.6919 22.18 55.0779 22.18C55.8699 22.18 56.6799 22.09 57.4179 21.784C58.1019 21.514 58.4439 21.172 58.4439 20.686C58.4439 20.164 58.0659 19.732 57.5619 19.732ZM53.0979 17.032C53.2599 16.078 53.8539 15.466 54.8439 15.466C55.8159 15.466 56.4099 16.168 56.4819 17.032H53.0979ZM68.279 19.732C67.685 19.732 67.217 20.29 65.957 20.29C64.787 20.29 64.049 19.696 63.833 18.598H68.333C69.071 18.598 69.503 18.112 69.503 17.266C69.503 16.456 69.269 15.484 68.477 14.674C67.829 14.026 66.875 13.594 65.543 13.594C64.247 13.594 63.221 14.026 62.501 14.746C61.781 15.484 61.331 16.546 61.331 17.788C61.331 19.084 61.763 20.182 62.537 20.974C63.293 21.748 64.409 22.18 65.795 22.18C66.587 22.18 67.397 22.09 68.135 21.784C68.819 21.514 69.161 21.172 69.161 20.686C69.161 20.164 68.783 19.732 68.279 19.732ZM63.815 17.032C63.977 16.078 64.571 15.466 65.561 15.466C66.533 15.466 67.127 16.168 67.199 17.032H63.815ZM72.534 14.746V21.028C72.534 21.658 73.056 22.18 73.722 22.18C74.352 22.18 74.91 21.658 74.91 21.028V18.13C74.91 16.942 75.432 15.628 76.836 15.628C77.34 15.628 77.7 15.79 77.916 16.042C78.258 16.42 78.33 17.014 78.33 17.59V21.028C78.33 21.658 78.87 22.18 79.518 22.18C80.166 22.18 80.724 21.658 80.724 21.028V16.996C80.724 15.772 80.346 14.926 79.77 14.404C79.14 13.828 78.276 13.594 77.358 13.594C76.494 13.594 75.576 13.9 74.892 14.584C74.802 14.026 74.334 13.594 73.722 13.594C73.056 13.594 72.534 14.116 72.534 14.746Z" fill="white"/>
<path fill-rule="evenodd" clip-rule="evenodd" d="M25.0933 22.0007C25.9309 22.8556 27.3462 22.7949 27.9353 21.7531C29.2191 19.4829 29.5 17.2908 29.5 15C29.5 12.6729 28.95 9.99518 27.8283 7.98815C27.2935 7.03125 26.0261 7.00049 25.2305 7.75455L19.9206 12.7869C18.5714 14.2623 18.5714 15.2459 19.9206 16.7213L25.0933 22.0007ZM22.6988 24.656C23.5513 25.4443 23.5607 26.8032 22.6064 27.4645C20.2958 29.0658 17.5154 30 14.5238 30C6.50253 30 0 23.2843 0 15C0 6.71573 6.50253 0 14.5238 0C17.4072 0 20.0943 0.867772 22.3537 2.36424C23.318 3.0029 23.3412 4.35523 22.5138 5.1633L16.3643 11.1685C15.9469 11.5761 15.3942 11.8033 14.8197 11.8033C13.578 11.8033 12.5714 10.7637 12.5714 9.48132V7.37705C12.5714 6.22407 11.676 5.2894 10.5714 5.2894C9.46686 5.2894 8.57143 6.22407 8.57143 7.37705V22.9943C8.57143 24.1473 9.46686 25.082 10.5714 25.082C11.676 25.082 12.5714 24.1473 12.5714 22.9943V20.5449C12.5714 19.2481 13.5894 18.1967 14.8451 18.1967C15.4048 18.1967 15.9448 18.4099 16.3618 18.7956L22.6988 24.656Z" fill="white"/>
</svg>
