<svg id="Capa_1" enable-background="new 0 0 512 512" height="512" viewBox="0 0 512 512" width="512" xmlns="http://www.w3.org/2000/svg"><g><g fill="#6e61b7"><path d="m15 15-10.605 10.605 60 60 10.605-10.605 10.605-10.605-60-60z"/><path d="m135 135-10.605 10.605 242 242 10.605-10.605 10.605-10.605-242-242z"/><path d="m447.605 426.395-10.605 10.605-10.605 10.605 60 60 10.605-10.605 10.605-10.605z"/></g><g fill="#54469d"><path d="m42.804-2.729h14.998v84.853h-14.998z" transform="matrix(.707 -.707 .707 .707 -13.337 47.197)"/><path d="m253.804 79.577h14.998v342.24h-14.998z" transform="matrix(.707 -.707 .707 .707 -100.736 258.197)"/><path d="m464.804 419.271h14.998v84.853h-14.998z" transform="matrix(.707 -.707 .707 .707 -188.135 469.197)"/></g><path d="m60 60v452h90v-362h362v-90z" fill="#ff8fb8"/><path d="m150 150h362v-90h-452z" fill="#ff5f96"/><path d="m362 0v362h-362v90h452v-452z" fill="#7ed8f6"/><path d="m362 0v362l90 90v-452z" fill="#6aa9ff"/></g></svg>