<svg width="96" height="30" viewBox="0 0 96 30" fill="none" xmlns="http://www.w3.org/2000/svg">
<path d="M50.344 10.176C50.632 9.888 50.752 9.504 50.752 9.12C50.752 8.184 49.96 7.44 49.096 7.44C48.64 7.44 48.208 7.632 47.896 7.968L42.088 14.184V9.12C42.088 8.184 41.32 7.44 40.36 7.44C39.4 7.44 38.632 8.184 38.632 9.12V22.56C38.632 23.496 39.4 24.24 40.36 24.24C41.272 24.24 42.088 23.496 42.088 22.56V18.624L43.528 17.16L48.136 23.472C48.496 23.952 48.928 24.24 49.552 24.24C50.536 24.24 51.304 23.376 51.304 22.488C51.304 22.176 51.208 21.84 51.016 21.576L45.856 14.736L50.344 10.176ZM63.0826 20.976C62.2906 20.976 61.6666 21.72 59.9866 21.72C58.4266 21.72 57.4426 20.928 57.1546 19.464H63.1546C64.1386 19.464 64.7146 18.816 64.7146 17.688C64.7146 16.608 64.4026 15.312 63.3466 14.232C62.4826 13.368 61.2106 12.792 59.4346 12.792C57.7066 12.792 56.3386 13.368 55.3786 14.328C54.4186 15.312 53.8186 16.728 53.8186 18.384C53.8186 20.112 54.3946 21.576 55.4266 22.632C56.4346 23.664 57.9226 24.24 59.7706 24.24C60.8266 24.24 61.9066 24.12 62.8906 23.712C63.8026 23.352 64.2586 22.896 64.2586 22.248C64.2586 21.552 63.7546 20.976 63.0826 20.976ZM57.1306 17.376C57.3466 16.104 58.1386 15.288 59.4586 15.288C60.7546 15.288 61.5466 16.224 61.6426 17.376H57.1306ZM77.3719 20.976C76.5799 20.976 75.9559 21.72 74.2759 21.72C72.7159 21.72 71.7319 20.928 71.4439 19.464H77.4439C78.4279 19.464 79.0039 18.816 79.0039 17.688C79.0039 16.608 78.6919 15.312 77.6359 14.232C76.7719 13.368 75.4999 12.792 73.7239 12.792C71.9959 12.792 70.6279 13.368 69.6679 14.328C68.7079 15.312 68.1079 16.728 68.1079 18.384C68.1079 20.112 68.6839 21.576 69.7159 22.632C70.7239 23.664 72.2119 24.24 74.0599 24.24C75.1159 24.24 76.1959 24.12 77.1799 23.712C78.0919 23.352 78.5479 22.896 78.5479 22.248C78.5479 21.552 78.0439 20.976 77.3719 20.976ZM71.4199 17.376C71.6359 16.104 72.4279 15.288 73.7479 15.288C75.0439 15.288 75.8359 16.224 75.9319 17.376H71.4199ZM83.0453 14.328V22.704C83.0453 23.544 83.7413 24.24 84.6293 24.24C85.4693 24.24 86.2133 23.544 86.2133 22.704V18.84C86.2133 17.256 86.9093 15.504 88.7813 15.504C89.4533 15.504 89.9333 15.72 90.2213 16.056C90.6773 16.56 90.7733 17.352 90.7733 18.12V22.704C90.7733 23.544 91.4933 24.24 92.3573 24.24C93.2213 24.24 93.9653 23.544 93.9653 22.704V17.328C93.9653 15.696 93.4613 14.568 92.6933 13.872C91.8533 13.104 90.7013 12.792 89.4773 12.792C88.3253 12.792 87.1013 13.2 86.1893 14.112C86.0693 13.368 85.4453 12.792 84.6293 12.792C83.7413 12.792 83.0453 13.488 83.0453 14.328Z" fill="#3C4263"/>
<path fill-rule="evenodd" clip-rule="evenodd" d="M25.0933 22.0007C25.9309 22.8556 27.3462 22.7949 27.9353 21.7531C29.2191 19.4829 29.5 17.2908 29.5 15C29.5 12.6729 28.95 9.99518 27.8283 7.98815C27.2935 7.03125 26.0261 7.00049 25.2305 7.75455L19.9206 12.7869C18.5714 14.2623 18.5714 15.2459 19.9206 16.7213L25.0933 22.0007ZM22.6988 24.656C23.5513 25.4443 23.5607 26.8032 22.6064 27.4645C20.2958 29.0658 17.5154 30 14.5238 30C6.50253 30 0 23.2843 0 15C0 6.71573 6.50253 0 14.5238 0C17.4072 0 20.0943 0.867772 22.3537 2.36424C23.318 3.0029 23.3412 4.35523 22.5138 5.1633L16.3643 11.1685C15.9469 11.5761 15.3942 11.8033 14.8197 11.8033C13.578 11.8033 12.5714 10.7637 12.5714 9.48132V7.37705C12.5714 6.22407 11.676 5.2894 10.5714 5.2894C9.46686 5.2894 8.57143 6.22407 8.57143 7.37705V22.9943C8.57143 24.1473 9.46686 25.082 10.5714 25.082C11.676 25.082 12.5714 24.1473 12.5714 22.9943V20.5449C12.5714 19.2481 13.5894 18.1967 14.8451 18.1967C15.4048 18.1967 15.9448 18.4099 16.3618 18.7956L22.6988 24.656Z" fill="#0BBB9B"/>
</svg>
