<svg width="104" height="42" viewBox="0 0 104 42" fill="none" xmlns="http://www.w3.org/2000/svg">
<path d="M62.232 16.328C62.496 16.064 62.606 15.712 62.606 15.36C62.606 14.502 61.88 13.82 61.088 13.82C60.67 13.82 60.274 13.996 59.988 14.304L54.664 20.002V15.36C54.664 14.502 53.96 13.82 53.08 13.82C52.2 13.82 51.496 14.502 51.496 15.36V27.68C51.496 28.538 52.2 29.22 53.08 29.22C53.916 29.22 54.664 28.538 54.664 27.68V24.072L55.984 22.73L60.208 28.516C60.538 28.956 60.934 29.22 61.506 29.22C62.408 29.22 63.112 28.428 63.112 27.614C63.112 27.328 63.024 27.02 62.848 26.778L58.118 20.508L62.232 16.328ZM73.909 26.228C73.183 26.228 72.611 26.91 71.071 26.91C69.641 26.91 68.739 26.184 68.475 24.842H73.975C74.877 24.842 75.405 24.248 75.405 23.214C75.405 22.224 75.119 21.036 74.151 20.046C73.359 19.254 72.193 18.726 70.565 18.726C68.981 18.726 67.727 19.254 66.847 20.134C65.967 21.036 65.417 22.334 65.417 23.852C65.417 25.436 65.945 26.778 66.891 27.746C67.815 28.692 69.179 29.22 70.873 29.22C71.841 29.22 72.831 29.11 73.733 28.736C74.569 28.406 74.987 27.988 74.987 27.394C74.987 26.756 74.525 26.228 73.909 26.228ZM68.453 22.928C68.651 21.762 69.377 21.014 70.587 21.014C71.775 21.014 72.501 21.872 72.589 22.928H68.453ZM87.0076 26.228C86.2816 26.228 85.7096 26.91 84.1696 26.91C82.7396 26.91 81.8376 26.184 81.5736 24.842H87.0736C87.9756 24.842 88.5036 24.248 88.5036 23.214C88.5036 22.224 88.2176 21.036 87.2496 20.046C86.4576 19.254 85.2916 18.726 83.6636 18.726C82.0796 18.726 80.8256 19.254 79.9456 20.134C79.0656 21.036 78.5156 22.334 78.5156 23.852C78.5156 25.436 79.0436 26.778 79.9896 27.746C80.9136 28.692 82.2776 29.22 83.9716 29.22C84.9396 29.22 85.9296 29.11 86.8316 28.736C87.6676 28.406 88.0856 27.988 88.0856 27.394C88.0856 26.756 87.6236 26.228 87.0076 26.228ZM81.5516 22.928C81.7496 21.762 82.4756 21.014 83.6856 21.014C84.8736 21.014 85.5996 21.872 85.6876 22.928H81.5516ZM92.2082 20.134V27.812C92.2082 28.582 92.8462 29.22 93.6602 29.22C94.4302 29.22 95.1122 28.582 95.1122 27.812V24.27C95.1122 22.818 95.7502 21.212 97.4662 21.212C98.0822 21.212 98.5222 21.41 98.7862 21.718C99.2042 22.18 99.2922 22.906 99.2922 23.61V27.812C99.2922 28.582 99.9522 29.22 100.744 29.22C101.536 29.22 102.218 28.582 102.218 27.812V22.884C102.218 21.388 101.756 20.354 101.052 19.716C100.282 19.012 99.2262 18.726 98.1042 18.726C97.0482 18.726 95.9262 19.1 95.0902 19.936C94.9802 19.254 94.4082 18.726 93.6602 18.726C92.8462 18.726 92.2082 19.364 92.2082 20.134Z" fill="#7E8299"/>
<path fill-rule="evenodd" clip-rule="evenodd" d="M35.4832 31.4259C36.3218 32.288 37.7377 32.2248 38.3778 31.2067C40.5458 27.7581 41 24.4594 41 21C41 17.4788 40.1071 13.3843 38.2832 10.5215C37.6911 9.59222 36.4175 9.56626 35.6205 10.3271L27.6862 17.9016C25.8111 19.9672 25.8111 21.3443 27.6862 23.4098L35.4832 31.4259ZM32.1793 35.107C33.0247 35.8945 33.0335 37.2409 32.1152 37.942C28.7732 40.4932 24.6486 42 20.1856 42C9.03742 42 0 32.598 0 21C0 9.40202 9.03742 0 20.1856 0C24.4962 0 28.4912 1.40565 31.7702 3.80038C32.6995 4.47913 32.7232 5.81907 31.9028 6.62612L22.7436 15.6359C22.1635 16.2066 21.3953 16.5246 20.5968 16.5246C18.8711 16.5246 17.4722 15.0692 17.4722 13.2738V10.3279C17.4722 8.7137 16.2277 7.40515 14.6925 7.40515C13.1573 7.40515 11.9128 8.7137 11.9128 10.3279V32.192C11.9128 33.8062 13.1573 35.1148 14.6925 35.1148C16.2277 35.1148 17.4722 33.8062 17.4722 32.192V28.7629C17.4722 26.9473 18.8869 25.4754 20.6322 25.4754C21.4101 25.4754 22.1606 25.7739 22.7402 26.3138L32.1793 35.107Z" fill="#0BBB9B"/>
</svg>
